<svg width="150" height="20" viewBox="0 0 150 20" fill="none" xmlns="http://www.w3.org/2000/svg">
  <path d="M62.7959 19.6921H56.7343L58.871 4.17847H64.9326L62.7959 19.6921Z" fill="#F8FF13"/>
  <path d="M129.255 19.6921H123.194L125.33 4.17847H131.392L129.255 19.6921Z" fill="white"/>
  <path d="M117.868 4.17847L117.065 9.99606H111.004L111.807 4.17847H105.745L104.942 9.99606L104.409 13.8745L103.606 19.6921H109.667L110.47 13.8745H116.532L115.729 19.6921H121.79L122.593 13.8745L123.127 9.99606L123.93 4.17847H117.868Z" fill="white"/>
  <path d="M80.4229 4.17847H66.2782L65.7417 8.05687H76.5223C76.8921 8.05687 77.1406 8.44083 77.0739 8.91787C77.0103 9.39103 76.6557 9.77887 76.2829 9.77887H65.5053L64.9689 13.6573L64.1415 19.6921H78.2862C80.5169 19.6921 82.6445 17.3767 83.0385 14.5222L83.0991 14.0917C83.2598 12.9204 82.884 11.4078 82.005 11.082C82.3808 10.7873 82.9961 9.96504 83.1355 8.91787L83.1961 8.48737C83.5235 6.10991 82.2839 4.17847 80.4199 4.17847H80.4229ZM76.9769 14.5222C76.9133 14.9953 76.5556 15.3832 76.1859 15.3832H70.7971L71.0335 13.6612H76.4223C76.7951 13.6612 77.0466 14.0451 76.9769 14.5222V14.5222Z" fill="white"/>
  <path d="M149.95 8.05687C150.277 5.67553 148.977 4.17847 147.116 4.17847H135.665C133.804 4.17847 132.031 6.10603 131.704 8.48737L131.586 9.34837C131.259 11.7297 132.501 13.6573 134.359 13.6573H142.442C142.815 13.6573 143.064 14.0412 142.997 14.5183C142.93 14.9953 142.576 15.3793 142.206 15.3793H130.755C130.428 17.7606 131.671 19.6882 133.529 19.6882H144.306C146.537 19.6882 148.667 17.3728 149.058 14.5183L149.119 14.0878C149.446 11.7064 148.204 9.77887 146.346 9.77887H138.263C137.89 9.77887 137.641 9.39491 137.708 8.91787C137.775 8.44083 138.129 8.05687 138.499 8.05687H149.95V8.05687Z" fill="white"/>
  <path d="M16.4518 4.17847H1.63417L0.270313 14.0839H14.4151C16.6488 14.0839 18.7764 11.7685 19.1674 8.91399L19.228 8.48737C19.5553 6.10991 18.3157 4.17847 16.4518 4.17847ZM13.1058 8.91399C13.0724 9.15057 12.9724 9.36776 12.8269 9.52678C12.6814 9.68192 12.4996 9.775 12.3147 9.775H6.92595L7.16539 8.05687H12.5572C12.9239 8.05687 13.1724 8.44471 13.1058 8.91399ZM2.57978 19.6882H5.56512L6.10157 15.8098H0.0399714C-0.238862 17.8343 0.976489 19.6882 2.58281 19.6882H2.57978Z" fill="#F8FF13"/>
  <path d="M57.1494 8.91784L57.207 8.49121C57.5343 6.10988 56.2917 4.18231 54.4338 4.18231H39.6162L37.4795 19.692H43.5411L44.3139 14.0916H46.0567L49.0905 19.692H55.5825L52.5426 14.08C54.7187 13.9791 56.7614 11.7103 57.1464 8.91784H57.1494ZM45.1444 8.06071H50.5362C50.9059 8.06071 51.1545 8.44467 51.0878 8.91784C51.0211 9.39488 50.6665 9.77884 50.2967 9.77884H44.908L45.1444 8.06071V8.06071Z" fill="#F8FF13"/>
  <path d="M29.9238 19.692H36.4157L33.9153 4.18231H23.0014L16.2124 19.692H22.7044L23.6439 17.5434H29.5752L29.9207 19.692H29.9238ZM25.5321 13.2345L27.981 7.64184L28.8842 13.2345H25.5321Z" fill="#F8FF13"/>
  <path d="M96.0406 19.6921H102.533L100.029 4.17847H95.6102L89.1152 4.18622L82.3262 19.6921H88.8182L89.7578 17.5434H95.689L96.0345 19.6921H96.0406ZM91.649 13.2345L94.0979 7.64188L95.001 13.2345H91.649Z" fill="white"/>
  <path d="M65.1443 3.06953H59.0827L59.4342 0H65.4958L65.1443 3.06953Z" fill="#F8FF13"/>
  <path d="M131.693 3.06953H125.631L125.983 0H132.044L131.693 3.06953Z" fill="white"/>
</svg>
